<?xml version="1.0" standalone="no"?>
<!DOCTYPE svg PUBLIC "-//W3C//DTD SVG 1.1//EN" "http://www.w3.org/Graphics/SVG/1.1/DTD/svg11.dtd" >
<svg xmlns="http://www.w3.org/2000/svg">
<metadata></metadata>
<defs>
<font id="every_end_is_a_new_beginninRg" horiz-adv-x="80" >
<font-face units-per-em="2048" ascent="1638" descent="-410" />
<missing-glyph horiz-adv-x="453" />
<glyph unicode="&#xd;" />
<glyph />
<glyph />
<glyph unicode=" "  horiz-adv-x="453" />
<glyph unicode="&#x09;" horiz-adv-x="453" />
<glyph unicode="&#xa0;" horiz-adv-x="453" />
<glyph unicode="!" horiz-adv-x="368" d="M40 0v6q0 82 135 171l14 1q43 -25 43 -64q0 -73 -163 -121h-22zM110 341v7l49 242l-8 92q21 278 42 278q29 0 28 142l50 57q56 0 57 -64q-14 -268 -90 -619q-28 -135 -85 -135l-36 -7z" />
<glyph unicode="&#x22;" horiz-adv-x="651" d="M92 762q-52 13 75 361q50 40 72 35l10 -2q33 -27 58 -106l-45 -61q-42 -117 -114 -214l-4 -6l-32 -12zM379 780v6q0 105 42 222v66q78 67 127 84h10q24 0 43 -48q-123 -348 -180 -348h-21z" />
<glyph unicode="#" horiz-adv-x="1097" d="M30 464l9 38q51 23 251 -2l120 29q284 14 593 1l25 -10q20 -8 -23 -98l-189 -13l-9 8l-67 -3l40 122q-46 -1 -125 0l-19 -104q-67 -46 -168 -31l-30 21l-73 -30l45 137l-120 -29l-8 1l-73 -68l1 -36l-124 9l-20 8q-34 14 -36 50zM110 783q-28 113 291 92l-60 -118l145 14 l34 109q233 13 541 0l25 -10q30 -32 2 -97h-230l38 112l-117 1l-27 -82l-32 -10l-7 -12l-149 -9l-78 -3l-144 -13h-196zM142 59v26l76 254l-8 9v25l8 9l-8 8v43l81 76l-9 43q24 127 68 127l-17 42q0 44 70 152q-10 44 32 44l-8 42v17l80 222q102 25 102 -1v-34l-187 -594 q-71 -247 -113 -264q-57 -282 -108 -305h-25q-34 13 -34 59zM509 59v26l76 254l-8 9v25l8 9l-8 8l60 43q36 246 80 246l-17 42l50 82l134 425q72 15 92 -31v-34q-105 -379 -187 -594q-71 -247 -93 -264q-77 -282 -128 -305h-25q-34 13 -34 59z" />
<glyph unicode="$" horiz-adv-x="868" d="M2 223q23 20 153 23q37 -93 117 -104q45 -7 85 110l1 70l15 51l-3 35l23 102q10 74 -165 137q-134 113 -126 166l-6 81l8 60q83 190 208 172q2 14 151 15l86 110l34 -5l8 -9l9 -1l19 14l9 -1l-16 -50q-14 -103 209 -135l35 -66q-27 -50 -60 -53l-116 51l-17 3 q-69 9 -82 -86l9 -62l-15 -42l-1 -193q253 -264 244 -332l1 -52q-18 -133 -254 -245q-73 10 -238 -133l-8 1q-19 6 -63 175q-266 105 -254 193zM234 875q54 -73 68 -142l83 -29l17 -2q45 13 55 80l-2 44l31 100q15 104 -63 115l-34 5q-94 13 -149 -59l3 -44zM468 167l53 -60 l8 -1q85 -12 167 125l5 34q-40 155 -143 170q-29 4 -58 -106l6 -10l9 -1z" />
<glyph unicode="%" horiz-adv-x="794" d="M61 843q10 110 171 190l20 1q41 -20 56 -66q-29 -130 -135 -134l-52 -2zM166 51l2 26l106 226l-7 9l2 25l8 9l-7 8l31 41l25 74l13 42q21 95 72 121l6 42q4 44 26 100q35 91 46 90l14 41l1 17l91 215q34 72 94 11l5 -55q-107 -371 -217 -577q-75 -242 -96 -257 q-101 -274 -149 -293l-23 2q-66 19 -43 83zM553 178q32 137 146 142l57 2l65 -11q-11 -115 -186 -201h-21q-45 20 -61 68z" />
<glyph unicode="&#x26;" horiz-adv-x="986" d="M54 133q129 248 290 425l16 42q-100 230 -60 393q87 130 200 169l149 10q256 -43 278 -215q-22 -173 -401 -442l-28 -63l-2 -22q48 -175 133 -189l10 -2q168 34 182 88q75 41 124 36l25 -38l-4 -33q-110 -141 -200 -128q-78 -4 -90 -100q-4 -28 119 -112l-6 -78l-64 -18 q-64 19 -103 94q-63 100 -105 107l-9 1q-280 -44 -363 -64l-15 37q-87 14 -76 102zM222 218q-8 -66 60 -77q177 0 187 81l2 11q7 61 -69 158l-48 8q-50 -20 -132 -181zM421 928q-6 -224 61 -293q261 199 277 327q8 59 -120 53q-197 78 -218 -87z" />
<glyph unicode="'" horiz-adv-x="367" d="M48 1049q83 83 141 107l14 1q30 1 66 -53q-69 -410 -143 -415l-26 -2l-33 19v7q-27 122 -2 259z" />
<glyph unicode="(" horiz-adv-x="400" d="M12 513l7 38q39 236 68 323q71 289 300 318l46 -26l6 -50l-22 -19q-130 -69 -174 -181.5t-74 -289.5l1 -50q-61 -284 1 -455l75 -123l79 -58l12 -38l-25 -41l-60 -10q-179 91 -212 300l-11 92l-16 86q8 47 3 106z" />
<glyph unicode=")" horiz-adv-x="487" d="M0 -61l21 20q127 75 165.5 189.5t60.5 291.5l-4 51q48 287 -23 454l-81 119l-82 56l-14 37l24 42l59 13q184 -83 227 -290l15 -92l19 -85q-5 -47 3 -106l8 -78l-5 -38q-28 -238 -53 -326q-57 -292 -284 -332l-48 24z" />
<glyph unicode="*" horiz-adv-x="660" d="M40 929v27l27 27l91 -18q77 0 99 181q19 36 55 36l18 -27l-9 -163l36 -27h55l190 54l18 -27q-9 -42 -172 -127l-9 -36v-18l45 -136l-45 -45h-9q-117 136 -173 136l-145 -82q-45 15 -45 45l36 91v9q0 37 -63 100z" />
<glyph unicode="+" horiz-adv-x="1132" d="M40 514l11 58l6 4q29 20 179 3q190 10 227 35q66 46 59 219q18 197 70 233l39 -13l19 -27q38 -56 8 -200q14 -34 -3 -170l-3 -12l5 -6q10 -15 407 -38l19 -28q9 -13 -11 -27q-45 -31 -304 -40q-74 -1 -112 -27q-79 -54 -64 -313q37 -54 24 -63q-124 -9 -155 34 q-14 22 8 294l-14 20q-31 45 -263 19q-127 8 -152 45z" />
<glyph unicode="," horiz-adv-x="471" d="M-6 -148l6 22q8 26 143 94l21 40l2 8q10 35 -77 139l2 39q32 115 144 133l108 -30q17 -5 4 -89q20 -6 17 -43l-10 3l16 -85l-10 -35l-11 -5l7 -10l-19 -65q-50 -4 -67 -67q-153 -94 -224 -103l-27 8z" />
<glyph unicode="-" horiz-adv-x="616" d="M40 538l1 17q3 43 209 53l152 -11l78 12l50 -21l62 16l39 -60l-41 -77l-138 -10l-151 28l-111 1l-8 8l-9 1l-34 -6l-59 4z" />
<glyph unicode="." horiz-adv-x="335" d="M40 75q16 176 111 176h47l55 -18q0 -149 -139 -250h-18q-39 29 -56 92z" />
<glyph unicode="/" horiz-adv-x="459" d="M-23 79v26l96 234l-8 9v25l8 9l-8 8l30 43l21 76l11 43q14 97 68 127l3 42q0 44 20 102q30 94 42 94l12 42v17l80 222q32 75 102 19l10 -54q-85 -379 -187 -594q-61 -247 -83 -264q-87 -282 -138 -305h-25q-74 13 -54 79z" />
<glyph unicode="0" horiz-adv-x="932" d="M58 535q33 257 109 483q51 81 193 112l117 22l62 -13l193 -34l45 -2q46 -35 138 -228l-11 -25l22 -73l-2 -27l-37 -41l31 -56l-1 -26q-32 2 -88 -289q-41 -121 -240 -297q-11 -25 -55 -23l-18 1l-8 9l-74 -39l-17 1q-29 37 -77 40v8l-27 -7q-273 200 -255 504zM179 483 l51 -56q-4 -66 55 -164q45 -90 196 -99q109 24 236 234q33 108 41 256q18 296 -244 370l-98 6q-195 12 -217 -361l-1 -18l-9 1l9 -10l-12 -43z" />
<glyph unicode="1" horiz-adv-x="788" d="M40 804q2 43 194 118l362 266l46 -3q38 -18 35 -71l-73 -536l6 -60l-5 -98l17 -30v-10l-33 -96q34 -62 33 -91l-1 -20l-9 1l6 -50l-2 -39q-43 -76 -89 -103l-38 2q-54 42 -49 130q14 290 82 714l1 20q3 68 -54 71q-257 -173 -347 -168l-56 3q-21 1 -26 50z" />
<glyph unicode="2" horiz-adv-x="901" d="M40 80v45q0 56 217 226q342 358 342 478v9q0 127 -216 181h-54q-68 0 -127 -127q-63 -108 -126 -108q-22 0 -27 90q51 244 199 244q0 13 108 36q168 -33 252 -99q107 -103 136 -253v-27q-45 -132 -145 -226l-225 -279v-27l54 -64l117 9q0 -36 298 -36l18 -18v-9 q-69 -117 -135 -117h-9q0 30 -334 36l-63 18l-100 -36q-18 15 -153 27z" />
<glyph unicode="3" horiz-adv-x="855" d="M45 284l1 9l30 23l17 -2l59 -26l44 4q41 -6 65 -125l25 -12l45 3l43 -5l32 -30l17 -3q225 22 237 112q14 113 -130 230q-94 47 -188 59l-55 -10q-23 3 -27 65q8 59 182 102q215 86 226 166q-38 182 -205 204l-51 16q-123 15 -215 -151l-38 -22l-27 4l-23 29l6 45 q26 199 356 211l26 -3q35 -40 57 -43l79 -1q134 -65 127 -123q-5 -35 48 -42l25 -75l-7 -61q-28 -14 -65 -98l-159 -130q-6 -46 136 -178l64 -195q-19 -148 -253 -242l-81 -7l-51 16q-13 -26 -56 -20l-9 1q-50 50 -143 62q-152 134 -149 152q-20 27 -15 91z" />
<glyph unicode="4" horiz-adv-x="980" d="M43 421q4 94 186 221q344 386 464 476l39 13q100 -5 97 -73q-2 -34 20 -62l-2 -46q-2 -38 -18 -37l14 -46l-33 -221l7 -8l-1 -8q-4 -86 -43 -150q20 -54 66 -56l8 -1l109 12q38 -11 37 -24l9 -53q-22 -49 -147 -58l-45 2q-77 -7 -79 -65l16 -153l-2 -31l-64 -58l-15 1 q-44 52 -39 162l4 83q3 69 -81 73l-76 4l-183 16l-46 -14l-15 1l-30 24l-107 5q-53 2 -50 71zM257 496q22 -55 49 -62l82 11q35 -23 95 -25l126 -6q74 -3 112 351l6 118q2 52 -49 55h-8q-226 -211 -365 -377q-46 -39 -48 -65z" />
<glyph unicode="5" horiz-adv-x="861" d="M42 225l2 46q0 15 47 25q23 -1 142 -133q62 -35 191 -53q156 -5 228 222l12 82v9q6 166 -119 262q-157 5 -307 -118l-56 -17q-74 3 -71 86q48 540 148 537l165 -6l100 -21l303 -11l27 -20q-3 -83 -105 -124q1 24 -385 49q-42 -71 -66 -80l7 -37l-11 -55q22 -92 43 -93 q118 42 296 36q55 -2 145 -300q-5 -166 12 -193q-109 -326 -296 -320q-1 -19 -37 -17q-338 55 -336 121q-81 62 -79 123z" />
<glyph unicode="6" horiz-adv-x="831" d="M46 459l1 26q21 324 189 533q144 130 329 118l76 -5q138 -135 138 -156q-32 -93 -58 -92l-34 2l-139 131l-60 3q-127 8 -278 -285l-1 -16l25 -28l192 48l35 -2l121 1q170 -87 205 -178q-3 -51 13 -70l-3 -51v-113q-7 -121 -128 -259q-142 -95 -273 -86q1 23 -153 61 q-203 253 -197 418zM217 431q42 -305 247 -318q194 59 204 212l1 8q-25 271 -216 283q-152 10 -236 -185z" />
<glyph unicode="7" horiz-adv-x="924" d="M42 1100q4 89 181 72l161 1l25 -9l62 -4l169 -8q63 -2 99 14q150 -7 148 -69q-1 -22 -144 -217l-47 -59q-2 -37 -154 -260l-19 -17q-189 -268 -217 -479q-44 -51 -92 -49q-25 33 -24 63q11 246 375 793q57 85 58 112q-4 24 -42 47l-107 5l-133 -3q-39 1 -81.5 -1 t-131.5 2q-88 27 -86 66z" />
<glyph unicode="8" horiz-adv-x="941" d="M49 269l3 68q43 107 238 278l11 47q-145 180 -142 240l4 88q67 170 417 171q115 -23 114 -45l10 10l38 -2q163 -49 154 -221l6 -49q-26 -71 -174 -194l-2 -29l173 -232l13 -107q-178 -301 -480 -285q-392 98 -383 262zM243 278q-2 -52 53 -100l49 7l94 -44l87 -4 q197 56 202 154q5 104 -201 233l-48 3q-148 8 -232 -171zM306 914q-3 -55 91 -91q-4 -69 111 -103q112 -6 231 143q-64 167 -176 173l-39 2q-184 -22 -187 -87l-31 -28v-9z" />
<glyph unicode="9" horiz-adv-x="909" d="M40 160v43l26 26h8q197 -30 197 -77l162 -26h9q256 114 256 274v8q0 46 -34 60h-34l-197 -51q-213 46 -213 111q-146 159 -146 257q0 284 265 359l188 34h17q245 -78 300 -197l25 -162v-43q0 -43 -34 -94l17 -68v-35q-68 -286 -102 -367q-137 -161 -248 -205l-77 -9 q-385 85 -385 162zM220 827q57 -265 213 -265h9q222 26 222 146l9 34l-9 171q0 73 -137 145h-25q-282 0 -282 -231z" />
<glyph unicode=":" horiz-adv-x="335" d="M43 172l2 17q11 155 152 181q43 -14 42 -29l-6 -87q-5 -63 -143 -156l-8 1q-42 26 -39 73zM102 783q67 188 128 183q58 -30 55 -83q-36 -123 -119 -175l-36 -14q-17 1 -28 89z" />
<glyph unicode=";" horiz-adv-x="416" d="M-22 -53q3 15 110 64l24 44l-17 93l8 41q25 146 151 124l33 -5q43 -8 22 -149l-14 -34l7 -7l-1 -6q-10 -58 -123 -140q-103 -85 -168 -74zM193 982q18 102 94 89l17 -3q39 -30 31 -76l-6 -34q-23 -133 -14 -180q-6 -35 -91 -72q-35 6 -31 276z" />
<glyph unicode="&#x3c;" horiz-adv-x="876" d="M49 671q56 92 489 209q251 128 340 116l15 -18q-15 -110 -612 -295l-21 -32l-1 -9q-11 -81 207 -172l47 -32l10 8l8 -1q16 -2 66 -87q71 -9 188 -187l-3 -25l-48 -36l-8 1q-179 100 -305 211q-381 284 -372 349z" />
<glyph unicode="=" horiz-adv-x="734" d="M40 441l106 44l214 -30l124 -10l7 -11l9 -2l39 4l67 -10l38 -55l-3 -19q-7 -46 -236 -39l-169 27l-86 -4l-54 26l-48 -1l-7 80h-1zM120 649l3 19q8 47 236 39l169 -27l87 5l53 -27l49 2l8 -80l-107 -45l-214 30l-123 11l-8 10l-9 2l-39 -3l-66 10z" />
<glyph unicode="&#x3e;" horiz-adv-x="1073" d="M40 920q0 88 138 88h10q28 -29 98 -29q92 -79 128 -79l59 10q93 -55 206 -69q354 -141 354 -226q-25 -119 -482 -335q-200 -127 -275 -127l-79 -10l-19 29v30q52 68 462 285q88 40 88 98v10q0 77 -481 197q-207 38 -207 128z" />
<glyph unicode="?" horiz-adv-x="754" d="M40 870v46q0 61 83 120q0 66 290 110q36 0 36 -18q188 0 265 -251q-18 -26 -38 -193q-11 -74 -66 -74q-58 -80 -194 -134q-21 0 -66 -42l-11 -55l19 11q-48 -100 -124.5 -100t-18.5 193q15 77 124 133l55 21q76 22 93 42q68 51 68 97v9l21 83q-44 149 -200 149 q-80 -13 -143 -46q-124 -128 -147 -128q-46 12 -46 27zM100 33v14q0 118 162 147q50 -8 50 -20v-67q0 -49 -151 -127h-10q-51 17 -51 53z" />
<glyph unicode="@" horiz-adv-x="1146" d="M20 585q0 177 179 376q164 144 316 163l49 5l58 -5l89 -5q13 1 73 -19q89 -20 183 -133q67 -46 134 -212q18 0 40 -125q-32 -136 -64 -155q-155 -245 -322 -195l-28 10l-98 81l-163 -30q-129 0 -161 266q0 282 243 347h16l49 -14h89l16 14v7q0 45 -72 74l-24 -7l-114 7 q-68 -44 -138 -51q-187 -136 -187 -244q-41 -38 -41 -74v-22l-17 -95v-60q0 -151 122 -243q0 -61 188 -124q29 -17 187 -31l105 14h16q88 0 276 126l49 45l57 -30v22q47 -97 -260 -244l-40 7q-38 0 -107 -36l-80 -3l-57 5l-73 20l-73 2q-204 63 -261 138q-146 176 -146 399z M394 644l16 -44v-15l-8 -8q0 -98 64 -147h17q64 0 130 119q65 122 65 257q0 26 -40 53l-25 -8l-89 8q-98 -38 -98 -185zM735 496q25 0 25 -59q13 -44 65 -44h8q116 0 199 222v66q-65 219 -167 229q-63 -30 -122 -295l-8 -52l16 -29z" />
<glyph unicode="A" horiz-adv-x="928" d="M40 496q0 35 149 53q37 37 122 297q83 315 149 315l52 8q59 -50 105 -166q15 0 26 -113q49 -56 79 -184l18 -96q17 0 35 -70q35 0 52 -35v-9q0 -40 -44 -79l9 -8v-9l-9 -9l27 -44v-35l-9 -52q13 -103 87 -193v-17q0 -32 -78 -113h-18q-56 35 -87 253q-26 219 -149 219 l-236 17q-61 0 -79 -114q-16 -3 -87 -166q-38 -48 -79 -61l-18 79l79 227q0 32 -96 105zM337 583q0 -69 167 -69q70 14 70 35v96q-41 200 -97 262h-17q-30 0 -44 -114q-17 0 -35 -113q-44 -23 -44 -70v-27z" />
<glyph unicode="B" horiz-adv-x="1052" d="M40 106v56l47 430q74 231 74 346q0 21 -102 93v19q25 120 289 140q13 -37 75 -37l122 9q0 -26 205 -38l196 -93l66 -121q0 -172 -299 -318l-19 -28v-10q0 -63 168 -121l94 -103v-75q-97 -162 -393 -252l-74 9l-85 -18h-121l-56 -18q-26 18 -122 27q-65 59 -65 103z M190 330l28 -47l-10 -46v-38q0 -46 56 -84q346 0 496 131l9 37q0 133 -458 178h-9q-66 0 -94 -112zM236 685q32 -11 56 -56l38 -9h28q202 0 448 168q28 34 28 65q0 122 -299 178l-177 9q-103 0 -103 -215q-12 0 -19 -140z" />
<glyph unicode="C" horiz-adv-x="1023" d="M54 580l7 145q58 241 171 330q98 88 364 117l38 -2q34 -31 66 -32l68 -4q22 -49 133 -54q84 -54 81 -111l-2 -58q-26 -92 -88 -92h-4q-95 208 -280 217l-39 2h-3q-37 0 -95 -43l-47 11l-20 1q-116 -47 -177 -242l7 -68q-59 -17 -62 -75l-1 -19q-1 -14 -1 -27 q0 -212 167 -329q93 -5 141 -85l97 -4l28 -21l55 -2q12 -1 23 -1q195 0 312 177l39 -2l55 -51v-10q-116 -180 -244 -229l-37 11q0 -38 -29 -36l-38 20q-59 -13 -60 -24q-250 38 -407 116q-219 182 -219 442q0 16 1 32z" />
<glyph unicode="D" horiz-adv-x="1197" d="M42 1130l3 43q189 59 234 59h4q17 -15 39 -15q29 0 68 25q72 -82 111 -93l63 6l248 -103q74 -6 282 -222l38 -47l-15 -52q28 -52 47 -226q-14 -192 -125 -257q-108 -116 -258 -183q-144 -42 -333 -49l-245 -3q-106 56 -106 145v11l12 149q90 347 100 481q-8 266 -33 268 q-136 38 -134 63zM267 444l34 -119l-27 -73v-6q0 -52 67 -95l21 -1q26 -2 53 -2q224 0 468 144q136 119 141 191l5 64q1 7 1 15q0 172 -313 358q-47 39 -237 103l-42 3h-2q-58 0 -124 -266l-8 -106z" />
<glyph unicode="E" horiz-adv-x="974" d="M34 137l14 148l27 94l12 130l-27 90l85 158l10 113q1 11 1 24q0 75 -40 207q4 43 66 55l86 -17q159 -10 240 -9q68 0 83 6l104 -18l78 1q146 -25 143 -66l-3 -26q-32 -43 -91 -43q-8 0 -17 1l-88 8q-43 2 -44 -13l-130 20q-82 8 -139 8q-123 0 -126 -36l-13 -51l-6 -60 q-3 -32 -3 -59q0 -125 65 -131l25 -11l9 8l18 -2l51 -13l26 6l-1 -9l27 7l384 -19l43 -4q48 -4 66 -49q-5 -52 -78 -80l-52 5l-8 8l-10 -7l-277 17l-105 10q-37 3 -69 3q-150 0 -157 -79l-39 -232q-6 -70 237 -93l96 1l138 -22l203 25l8 -10l-1 -9q-7 -83 -161 -133l-50 22 l-98 -16q-32 29 -310 54l-129 12q-73 7 -73 67v9z" />
<glyph unicode="F" horiz-adv-x="707" d="M20 98l52 353l6 237q22 66 66 286l-21 84l3 46q5 76 123 83l62 -32q36 -2 62 -2q69 0 70 12l99 -17l19 -1l55 7q134 -30 133 -46q-15 -103 -103 -103q-6 0 -13 1l-71 14l-47 4l-81 14l40 -3l-88 6h-4q-53 0 -102 -84l-1 -27l16 -28l-31 -133l33 -38q183 -14 266 -14 q19 0 33 1l9 -1l34 -13l-1 -9q24 -22 24 -42q0 -43 -111 -77l-45 12l-37 -16l-81 23l38 -12q-53 10 -53 22l-9 -9l-9 1l-9 9h-10q-108 0 -119 -165q-18 -1 -32 -61l-2 -46q-21 -312 -89 -312h-2l-39 3z" />
<glyph unicode="G" horiz-adv-x="1369" d="M62 630v10q32 393 622 491l201 14q287 -52 287 -166v-7q-16 -44 -64 -44h-10q-95 67 -205 76q-40 3 -79 3q-177 0 -306 -72h-7q-96 0 -260 -199l-2 -20l5 -61l-13 -39l42 -233q-6 -69 201 -117q-3 -30 92 -97l11 9l148 -22q35 -3 67 -3q259 0 368 179l8 89 q-95 157 -248 170h-10l-289 4q-50 12 -48 34l1 10q8 95 302 95h6q86 -7 303 -94q136 -11 136 -161q0 -15 -1 -31l19 -20l-4 -40q-65 -186 -214 -294l-259 -99l-79 16l-61 -15q-233 38 -430 135q-232 212 -232 456q0 21 2 43z" />
<glyph unicode="H" horiz-adv-x="1129" d="M40 103q30 80 75 470l-2 141q64 71 76 321l9 8l1 9l-6 62q4 89 121 89h15l16 -18l-1 -34l-10 -9l9 -9l-31 -288q32 -99 47 -108l448 -4h6q99 0 107 153l83 277l8 8l53 -2l25 -28l-12 -253l21 -63l-39 -279l-5 -97l-17 -51l7 -44l-26 -174l-1 -9q-53 -77 -83 -92l-35 1 q-20 1 -40 89l43 341l2 34q3 79 -110 85l-63 -6l-114 5q-52 2 -96 2q-272 0 -276 -89l-37 -227l22 -89v-8q-49 -190 -141 -195l-9 1q-24 1 -40 80z" />
<glyph unicode="I" horiz-adv-x="378" d="M43 81l3 64l65 542q17 21 50 334q12 0 50 125l121 24l17 -28l-3 -96l-11 -40l-1 -9l-34 -144l17 -29l-1 -9q-37 -36 -38 -70l-2 -37l15 -73l-12 -55l-29 -99l-10 -262q-29 -37 -30 -71l-4 -73q-13 0 -58 -97l-45 -7q-60 23 -60 102v8z" />
<glyph unicode="J" horiz-adv-x="814" d="M40 381q14 33 58 33h42q28 0 42 -125q124 -169 150 -175q63 0 159 141q116 290 116 551l9 25l-9 67l9 42l-9 125v75q0 39 117 50l50 -75q-33 -87 -33 -217l17 -58v-9q0 -28 -25 -58v-17l16 -67v-8q-33 -59 -33 -192q-36 -12 -59 -167q-21 -3 -83 -158q-92 -114 -175 -167 l-42 8l-50 -8q-234 87 -234 200q-18 0 -33 184z" />
<glyph unicode="K" horiz-adv-x="992" d="M40 67l15 240v9l-7 74q70 599 131 800l92 7l26 -84l-1 -56l-21 -72l8 -29l-10 -73l8 -29l-10 -54l-1 -28l19 -1q94 30 439 238l130 44l19 -1l18 -19q-3 -93 -245 -197q-178 -107 -180 -170q-1 -64 217 -227q29 -1 116 -105q75 -17 135 -141q62 -2 62 -98v-6 q-12 -44 -61 -44h-4h-19q-135 80 -406 389q-142 151 -199 153h-18h-1q-40 0 -58 -137l-47 -45l9 -10q-9 -355 -83 -385l-37 1q-18 1 -36 56z" />
<glyph unicode="L" horiz-adv-x="812" d="M40 56l12 127l76 230l64 285l36 188l-3 64l11 27l3 127l3 27q6 69 43 78l73 -7q38 -26 38 -73q0 -6 -1 -12l-48 -315l23 -48l-1 -9l-57 -122l-19 -208l-58 -131l-1 -9q-1 -9 -1 -18q0 -91 99 -101q26 -1 51 -1q138 0 219 24l101 18q42 -29 46 -55l24 -30q-6 -69 -112 -69 q-18 0 -40 2q7 2 9 2t2 -1q0 -5 -65 -37l-53 44q-60 -17 -212 -21l-10 -8h-9l-71 16q-57 -44 -98 -44h-7q2 14 -67 60z" />
<glyph unicode="M" horiz-adv-x="1273" d="M40 123q33 358 70 446l35 272l10 97q0 87 157 228h53q52 -21 95 -210q26 0 26 -88q43 -13 133 -263l35 -97l42 -198h8q44 6 161 400l202 439l70 17q61 -29 88 -79v-35l-18 -351l18 -79v-61l-18 -27l26 -87l-17 -97l17 -35l-8 -123v-26q1 -112 -97 -114q-43 60 -43 140 l9 79l-17 70l10 406l-9 44h-9q-116 -90 -116 -274q-71 -151 -71 -193q-33 -79 -44 -185q-94 -122 -131 -122q-93 142 -123 272q-41 53 -79 219q-26 33 -122 327l-26 18h-9q-67 0 -82 -170l-33 -175l9 -9v-9q-11 -77 -35 -105l26 -79q-35 -52 -43 -87l-8 -8l8 -53v-9 q-26 -27 -43 -122l-44 -26q-64 0 -64 94q0 13 1 28z" />
<glyph unicode="N" horiz-adv-x="1105" d="M40 219l25 68l4 34l-5 36q24 -3 100 516l1 8l-4 124q32 94 97 94q5 0 10 -1q96 -10 96 -77q0 -6 -1 -12l35 -83l-1 -9l-20 -24l-5 -43q129 -307 398 -614l35 -4q36 10 41 57l53 477l-2 141q27 253 86 253h3l71 10l8 -10l-1 -8l-10 -166l-11 -25l12 -54l-22 -42l2 -53 l-14 -51q26 -2 22 -37l-30 -41l-2 -17l23 -29l-21 -112l-10 -166l-30 -40l9 -71l-1 -9l-44 -83l3 -132q-5 -49 -76 -53q-88 26 -432 539q-17 76 -111 188l-35 3h-1q-25 0 -45 -100l18 -72l-23 -129l-1 -97q-40 -39 -59 -134l-87 -69l-8 1q-12 1 -40 118z" />
<glyph unicode="O" horiz-adv-x="1160" d="M55 576l29 107l15 127q66 232 335 319q122 38 261 37q44 0 90 -3q154 -76 226 -249q-2 -31 78 -153l46 -206l-19 -118l8 -10q-17 -138 -61 -187q-11 -123 -300 -275l-65 -13l-54 14l-74 -12l-286 97q-221 144 -221 378q0 22 2 45q-12 1 -12 52q0 21 2 50zM191 463 q52 -141 81 -245q114 -120 318 -138q230 18 235 70q115 52 160 335l2 28q-63 381 -106 384q-85 124 -171 144l-90 8h-10q-102 0 -271 -168q-41 -49 -78 -149q-37 -12 -41 -61l-3 -36l-12 -109z" />
<glyph unicode="P" horiz-adv-x="887" d="M40 547v18q98 59 98 223l9 134l-18 54q0 85 259 223l54 9h9q113 -45 179 -107q116 0 277 -179l18 -53v-54q-91 -146 -143 -179q-74 -80 -215 -80l-80 -36l-72 9q-123 0 -143 -143h-9l18 -116l-9 -54l9 -35q-35 -47 -35 -90q-37 -82 -90 -115h-18q-21 0 -44 71l9 89l-9 45 q15 0 26 241zM290 636l36 -18q447 58 447 197q0 102 -251 250l-89 27q-74 0 -89 -143q-48 0 -54 -313z" />
<glyph unicode="Q" horiz-adv-x="1226" d="M40 448l9 52v113q0 45 60 225q0 248 330 296q110 17 185 17q88 0 128 -24l104 -45q72 -19 169 -184q25 0 52 -61q24 0 34 -252q-35 0 -55 -215q-78 -100 -128 -168q-3 -14 -3 -28q0 -116 230 -166l61 -95q0 -28 -61 -60l-410 201h-43q-182 -57 -271 -57q-292 0 -365 268z M179 404q72 -217 121 -217q30 -78 96 -78h35q173 28 173 70v8q0 60 -61 200v17q18 52 69 52h61q109 -165 157 -165q67 0 165 244l-31 94q0 121 -56 131l-130 174q-145 95 -208 95h-61q-215 0 -252 -182q-27 -11 -78 -260v-183z" />
<glyph unicode="R" horiz-adv-x="1044" d="M40 304q9 201 52 387l-26 120q129 91 129 267l9 9q0 31 51 51l52 -17h43q176 69 258 69h17q252 0 345 -293v-17q0 -142 -198 -224q-216 0 -216 -43v-17q0 -92 224 -224q0 -69 78 -103l34 9q28 0 52 -86l60 -52q0 -23 -77 -86q-37 36 -164 103l-215 198q-197 183 -198 207 l-86 43q-32 0 -52 -121l9 -69l-26 -25v-52q0 -29 26 -60l-35 -52v-9l18 -25v-9q0 -74 -95 -155q-49 0 -60 276h-9zM324 880l9 -60h25l95 -43l146 -17h44q215 14 215 137q0 120 -198 190h-104q-113 0 -223 -164z" />
<glyph unicode="S" horiz-adv-x="1004" d="M43 811q106 264 224 264h5q65 45 339 91q94 -64 213 -80q-2 -24 65 -82l-1 -10v-16q0 -83 -51 -82q-21 0 -51 14q3 74 -192 119l-38 2q-318 -54 -355 -200q22 -148 127 -211q165 -85 483 -172q127 -82 127 -201v-13q-7 -134 -200 -245l-48 12l-70 -15q-554 130 -551 194 l-19 21l2 29l31 29l19 -1l302 -65q-1 -27 253 -53q77 27 103 74l3 69q3 56 -327 135q-386 144 -386 334v10z" />
<glyph unicode="T" horiz-adv-x="843" d="M32 1102l7 50q2 20 99 20q105 0 323 -24l132 -22l18 11l150 -5q118 -23 116 -44l-3 -20q-7 -39 -124 -86l-40 5l-29 13l-17 10l-50 6q-69 -19 -98 -80l-13 -29q-22 -6 5 -35l14 -71l15 -101l22 -93q-32 -234 -61 -234h-1l4 -51l-8 -69q-23 -29 -45 -204l-44 -34l-50 8 q-41 26 -41 70q0 6 1 13l1 10q18 151 49 236l-8 12l37 146q9 109 9 195q0 317 -116 331l-29 3l-100 7q-129 16 -125 56z" />
<glyph unicode="U" horiz-adv-x="1083" d="M40 691q22 439 83 439h1l90 23l26 -2l26 -28l-1 -18q-50 -349 -97 -349h-1l-1 -36q-1 -27 -1 -51q0 -196 85 -229q18 -1 16 -45l-1 -18l-20 -26q87 -172 214 -179q5 0 10 -1q148 0 301 199q89 170 95 297q26 520 87 520h1q29 13 78 13q10 0 20 -1l18 -18l-19 -372 q-2 -34 -49 -78q-18 -365 -129 -464q-150 -221 -386 -221q-12 0 -25 1l-53 3q-235 11 -346 381z" />
<glyph unicode="V" horiz-adv-x="1023" d="M40 1114l1 45l28 26l63 -1q108 -3 121 -220q24 -9 70 -137q-19 -41 -38 -45q120 -346 181 -348l28 -28v-9l-21 -63l45 -28q48 37 152 304l248 483l99 24h9l18 -18l-2 -63q-55 -181 -256 -483q-39 -149 -134 -323q-60 -159 -104 -179l-45 1q-78 2 -174 286 q-46 61 -222 557l-42 129z" />
<glyph unicode="W" horiz-adv-x="1594" d="M63 1081q21 54 112 54q19 0 42 -2q19 -60 19 -108q0 -12 -1 -24l28 -103l-3 -69l-1 -9l-23 -28l-3 -19q17 -295 63 -416q-5 -49 15 -51l10 -1q109 123 318 558q82 79 135 233q56 38 96 38h7l107 -12q40 -54 40 -146q0 -26 -3 -56l55 -125l-3 -29l-33 -36 q126 -302 218 -450l20 -2h1q44 0 136 437q44 406 189 406q6 0 12 -1l26 -34l-6 -58q-40 -103 -53 -206q7 -27 7 -52q0 -75 -66 -127l-71 -295l2 -69q-61 -100 -93 -217l-54 -34l-38 4q-73 8 -154 225q-44 5 -207 448q-18 172 -50 175q-85 -64 -317 -451l3 -60l-1 -10 q-59 -64 -162 -299l-75 -60l-68 8q-92 10 -102 247q-37 477 -74 826z" />
<glyph unicode="X" horiz-adv-x="987" d="M336 577q82 82 94 132q-26 74 -208 354l-6 41l1 24q1 29 114 34q82 -32 82 -116v-8l135 -190q66 67 233 325q57 51 101 51h5l32 -1l16 -17l-2 -32q-188 -326 -302 -450l-19 -63q53 -139 128 -198q-4 -71 117 -230l102 -213q-29 -76 -80 -76h-3q-23 1 -96 188 q-23 14 -224 371q-34 34 -54 35q-20 0 -353 -360q-33 -29 -76 -29h-6q-37 12 -37 54q0 60 306 374z" />
<glyph unicode="Y" horiz-adv-x="874" d="M40 1089q4 47 84 47q10 0 22 -1l22 -1q81 -100 79 -131l-10 -23q192 -173 189 -217v-8l-9 -8v-8l38 -10q198 274 293 380q72 22 124 22h12l15 -1q21 -8 21 -43v-6q-2 -29 -266 -311q-84 -113 -125 -219l-37 -84l3 -63q-18 1 -26 -37l-9 -243q-6 -85 -87 -120l-16 1 q-18 1 -24 104l16 125l7 94l1 125l8 7v8q1 9 1 19q0 139 -151 299q-171 205 -175 303z" />
<glyph unicode="Z" horiz-adv-x="1073" d="M40 1112q11 59 76 59h2h9l179 6h61h10q173 0 240 33l50 -8l199 7h17q77 -17 77 -42v-43q-29 -147 -578 -738q-87 -91 -87 -128v-35q0 -23 103 -51l86 7l60 -17q52 6 52 17l103 -8l189 -1l120 7q60 -11 60 -26v-8q0 -28 -94 -94l-241 9l-94 -25l-52 17l-103 -26l-34 26 l-69 -7l-292 52l-35 69q0 85 449 531q0 17 146 180q104 120 104 163q-22 43 -68 44l-379 -25q-78 -11 -133 -11q-133 0 -133 66z" />
<glyph unicode="[" horiz-adv-x="650" d="M46 -93q39 199 58 559v19h-10l10 165v261l19 357l-9 10v10q0 106 125 106l68 -19l77 9l68 -9l145 -21l10 -10v-10q-41 -111 -155 -95l-58 20h-77l-78 -78l10 -67v-78l-10 -58l20 -77l-10 -58l19 -106l-9 -29l9 -29q-7 -162 -48 -252v-29l-29 -319l48 -124l39 -29h10 l96 10l87 -20l66 20l19 -29q48 -116 -56 -126h-19l-106 19h-39l-77 -19h-20l-29 19h-77q-87 0 -87 107z" />
<glyph unicode="\" horiz-adv-x="541" d="M40 1157v35q0 26 89 51l67 -275v-17l-8 -43q37 0 67 -95q52 -59 52 -103l-15 -43q39 0 60 -128l-8 -43l45 -78v-43l-7 -9l7 -8v-25l-7 -10l66 -257v-26q0 -45 -30 -60h-22q-44 24 -111 310q-20 16 -92 265q-31 218 -153 602z" />
<glyph unicode="]" horiz-adv-x="640" d="M30 -228q-19 62 134 105l58 -19h78l77 77l-10 68v77l10 58l-19 77l9 58l-19 107l10 29l-10 29q7 161 48 251v29l29 319l-48 126l-39 29h-9l-97 -10l-87 19l-86 -9l-19 29q3 75 76 116h19l107 -20h38l78 20h19l29 -20h77q87 0 87 -106q-38 -200 -58 -561v-19h10l-10 -164 v-261l-19 -358l10 -9v-10q0 -106 -126 -106l-68 19l-77 -10l-68 10l-125 11l-9 10v9z" />
<glyph unicode="^" horiz-adv-x="800" d="M66 700q4 30 175 205q93 106 162 267l74 15l62 -21q11 -130 139 -310q67 -124 63 -222q-8 -54 -109 -39l-23 3q-71 107 -67 138l12 21q-91 95 -85 138l1 8l10 7l1 7l-38 14q-105 -174 -209 -271q-82 -20 -137 -12l-14 2q-23 11 -17 50z" />
<glyph unicode="_" horiz-adv-x="657" d="M-20 -79l2 18q1 32 122 53l36 -19l55 22l23 -9l174 -2l19 -1l88 -23l55 6l64 -38l43 15q23 -10 21 -36q-44 -101 -84 -98q-25 33 -200 63h-6q-156 9 -182 -24l-35 19h-6l-55 -22l-41 20l-48 -7q-26 17 -45 63z" />
<glyph unicode="`" horiz-adv-x="465" d="M40 1075q5 90 30 124l8 4q19 9 73 -26q189 -359 145 -380l-17 -9l-31 8l-5 6q-86 94 -149 215z" />
<glyph unicode="a" horiz-adv-x="980" d="M-10 145q0 178 679 328q83 0 99 47v66q-23 66 -127 113l-81 18h-9l-55 -18l-108 9q-50 -38 -163 -47q-60 -47 -99 -47q-24 0 -45 47q0 81 361 169l81 -10h19l72 19q62 -47 91 -47h90q81 -86 81 -131l-17 -19l27 -159v-94q0 -44 81 -113q0 -51 -99 -150 q-91 -206 -163 -206q-59 122 -118 122h-18l-54 -19l-298 -9q-184 0 -227 131zM198 183q0 -66 81 -66q434 38 434 122v94l-35 37h-73q-280 -63 -280 -112q-119 -35 -127 -66v-9z" />
<glyph unicode="b" horiz-adv-x="868" d="M40 387q32 215 87 467q24 189 84 289q43 44 114 44l18 -26v-44q-16 -11 -74 -229l-9 -9l-18 -26q11 -97 35 -97l180 44h9l106 -26l52 9q24 0 145 -185q42 0 70 -211q18 0 18 -35q-156 -334 -312 -334q0 -18 -44 -18h-26q-22 0 -233 70l-114 -17q-65 0 -88 334zM207 492 v-6q0 -168 110 -278l110 -76l65 -18q144 41 207 229l26 88q0 164 -224 255h-74q-220 -54 -220 -194z" />
<glyph unicode="c" horiz-adv-x="830" d="M40 284q43 282 127 389q167 153 352 153q120 0 144 -171q-13 -37 -27 -37h-27q-97 82 -135 82h-54q-105 0 -217 -217v-63l18 -37l-18 -45q63 -180 90 -180q50 0 108 -28q136 28 290 163l54 9l45 -45v-9q-98 -164 -280 -217l-154 -27q-121 0 -217 72q-77 76 -99 208z" />
<glyph unicode="d" horiz-adv-x="945" d="M39 394q0 315 328 393q99 0 117 28l37 -37h10l93 9q33 -56 85 -56q51 0 75 225l-20 94l-10 112l77 47h28q16 0 46 -113l-28 -28l10 -47l-10 -103l19 -56v-19q-37 -45 -37 -75l9 -65q2 -40 2 -80q0 -211 -58 -408l19 -56q-22 0 -47 -159l-38 -28h-19q-34 18 -84 131l-56 9 l-94 -56h-19l-37 19l5 -28l-103 19l-56 -10q-244 64 -244 338zM161 375q0 -149 150 -188l56 10l84 -10q239 27 239 132q22 0 48 137q-20 176 -310 228q21 0 21 -8q0 -9 -26 -29q-47 0 -47 18q-215 -44 -215 -243v-47z" />
<glyph unicode="e" horiz-adv-x="1030" d="M59 487q21 169 262 266q224 64 376 64l110 -28l37 10l156 -120v-27q-62 -202 -211 -202q-101 -39 -571 -74l-18 -27v-46q140 -147 314 -167l46 -27h174l168 66q25 9 42 9q34 0 34 -36q-86 -138 -235 -148h-183q-185 0 -377 129q-129 136 -129 293q0 32 5 65zM229 523 q9 -36 55 -36q523 17 553 110l9 9v9q0 71 -222 92q-62 -10 -64 -28l-46 9h-9q-42 0 -147 -73q-129 0 -129 -92z" />
<glyph unicode="f" horiz-adv-x="689" d="M1 798l3 27q3 25 113 25q41 0 99 -4l21 25l3 27q25 221 139 221q7 0 14 -1q91 32 171 32q21 0 42 -2q71 -17 69 -35q-32 -51 -119 -87l-62 16q-74 -12 -85 -109l8 -10l-1 -9l-16 -53q16 -56 48 -60l269 -13l15 -29l-3 -27q-70 -68 -207 -85l-53 15l-9 1h-2 q-35 0 -71 -156q-28 -6 -33 -51q-14 -125 -14 -204q0 -132 39 -136l-2 -18q-72 -96 -117 -96h-4q-32 4 -32 143t32 414q0 146 -100 157q-159 48 -155 82z" />
<glyph unicode="g" horiz-adv-x="988" d="M40 383q0 190 116 249q0 77 275 143l72 -9l89 9l53 -54h27q17 2 53 89l80 18l9 -9v-9l-9 -35q0 -87 45 -116q-45 -31 -45 -89v-125q0 -80 71 -80l45 9l27 -35v-18q0 -31 -81 -169l-53 -195q-20 -3 -80 -187q-102 -169 -267 -169q-409 67 -409 231v27l35 35l125 -115 q122 -63 231 -63h45q178 64 178 232l9 79q-50 45 -107 45l-98 -18q-76 36 -222 62q-214 128 -214 267zM156 365q128 -186 329 -186q231 0 231 97q0 192 -62 267q-101 134 -223 134h-26q-84 0 -249 -223v-89z" />
<glyph unicode="h" horiz-adv-x="935" d="M28 103l128 777l1 29l10 42l35 177q8 60 73 60q17 0 37 -4q43 -10 49 -86l-78 -243q-15 0 -18 -42v-8q-2 -59 48 -60q199 77 292 77h5q219 -6 248 -201q12 -142 46 -169l-1 -59q-37 -69 -48 -210l-112 -115l-25 1q-42 23 -41 77q79 233 79 449q0 96 -157 117h-8 q-161 0 -340 -151l-18 -25l15 -76q-44 -271 -66 -293l15 -26l-1 -33l-86 -99l-33 1q-29 0 -49 93z" />
<glyph unicode="i" horiz-adv-x="430" d="M97 9v8l54 241l-7 93q27 279 48 278q29 0 31 142l51 57q57 -1 56 -66q-18 -269 -103 -619q-30 -135 -87 -135h-1l-35 -6zM203 1050q0 73 164 121h22l7 -7v-7q0 -82 -136 -171h-14q-43 25 -43 64z" />
<glyph unicode="j" horiz-adv-x="478" d="M-50 -203l3 39q1 24 105 41h1q52 0 159 499q15 -1 22 125l-42 201q3 44 49 69l15 -1q60 -4 92 -205q33 -17 36 -33l-4 -64l-8 -8l7 -8q-24 -156 -51 -156h-1l-2 -23l5 -40q-26 -219 -70 -219h-1q-60 -198 -132 -260l-61 -36l-23 1q-90 46 -99 78zM377 1089l7 -1l14 -15 l-1 -15q-98 -128 -186 -137l-14 1q-27 13 -27 48q0 93 207 119z" />
<glyph unicode="k" horiz-adv-x="847" d="M40 369q0 31 78 121q34 95 77 465l9 52v60q0 104 138 104h17l17 -26v-69q-43 -97 -52 -233h-8l17 -51v-9q-52 -45 -52 -155h-8q15 -60 34 -60h17l371 120l69 17l17 -25q0 -65 -147 -147q-147 -22 -224 -103v-9q20 -86 268 -353q55 0 129 -103v-9l-60 -86h-26 q-110 18 -362 405q-35 77 -86 77h-18q-15 0 -43 -52l9 -86v-69q-34 -120 -103 -120q-35 14 -35 60v52l9 95z" />
<glyph unicode="l" horiz-adv-x="384" d="M58 60q87 625 104 875l-9 87q26 130 61 130l87 9l26 -35l-9 -69l26 -87l-35 -69l9 -9v-9q0 -104 -52 -207q-61 -371 -61 -468l9 -26q-11 -44 -26 -44l9 -43q0 -35 -78 -95h-35q-17 0 -26 60z" />
<glyph unicode="m" horiz-adv-x="1267" d="M40 104l44 509l-16 67v26q1 50 53 67q55 -1 72 -205l26 -9q45 16 130 150q158 151 206 157q149 -3 193 -71l25 -77l-10 -42q19 -52 33 -52h9q25 10 86 117q140 131 229 131h3q119 -2 117 -120l-18 -51l-1 -17l16 -68l-18 -51v-17l16 -59q-52 -50 -82 -313q-8 -50 -50 -50 h-2q-34 37 -33 69l2 119l41 346q-19 60 -33 61h-26h-1q-65 0 -147 -192q-25 -5 -26 -68l-1 -51q-61 -56 -134 -345q-35 -65 -85 -65h-1q-42 9 -41 67l43 484q-21 195 -90 196l-25 1q-51 1 -216 -251q-116 -280 -116 -311l7 -34q-100 -133 -138 -133h-1z" />
<glyph unicode="n" horiz-adv-x="868" d="M40 209q16 40 57 506v114l25 25h49q15 0 40 -74l9 -8l-9 -65l17 -66l-8 -40l8 -9h8q19 0 114 131q146 99 253 114q147 -41 147 -81q0 -29 41 -90l-8 -49q0 -48 33 -82v-130q0 -162 -49 -229q0 -80 -98 -212h-25l-24 25v16q49 255 49 489v41q-29 172 -115 172 q-139 -51 -196 -164q-150 -215 -187 -416l-49 -49h-25q-57 56 -57 131z" />
<glyph unicode="o" horiz-adv-x="1003" d="M21 370q0 287 453 453q86 27 148 27l212 -74q102 -116 102 -138q0 -41 27 -74v-55q0 -105 -55 -130q-67 -207 -305 -360h-18l-37 9l-93 -28h-18l-213 74q-203 120 -203 296zM123 361q48 -107 147 -139q44 -83 158 -83l27 -9h28q211 0 333 305v64q-28 194 -194 194h-65 l-268 -74q-166 -166 -166 -221v-37z" />
<glyph unicode="p" horiz-adv-x="1065" d="M40 -459q37 74 121 697v65l-19 102q47 104 75 354q0 56 120 74l10 -9h9l-9 -65v-75q9 -28 56 -28l241 65h75q204 0 204 -74q41 -15 102 -158q0 -167 -130 -381q-145 -139 -390 -139l-214 37q-69 0 -93 -325v-112q-53 -149 -130 -149h-9l-19 112v9zM328 229q0 -49 93 -140 h65l65 -18q335 43 335 325q-25 195 -195 195l-84 10q-66 0 -251 -205q-28 -44 -28 -167z" />
<glyph unicode="q" horiz-adv-x="961" d="M43 219q-3 46 -3 88q0 181 63 284q96 113 140 113q16 44 94 44q46 0 113 -15l70 -26l84 -24q55 -16 94 -16q70 0 88 53l26 70l14 64l9 -3l12 5q90 -49 90 -94q0 -9 -3 -17q-60 -244 -82 -358l-23 -89l-22 -61q-137 -613 -138 -695l-3 -9l-46 -58l-9 3h-6q-75 0 -75 75 q0 29 11 69l38 106q52 181 52 265q0 61 -27 71l-123 -70q-60 -12 -113 -12q-237 0 -325 237zM181 486q-47 -97 -47 -176q0 -135 139 -215l177 4l51 18q129 123 146 169q33 92 33 143q0 13 -2 24q-102 106 -164 129l-83 19q-40 15 -76 15q-106 0 -174 -130z" />
<glyph unicode="r" horiz-adv-x="653" d="M44 159l35 278l-5 92l13 194l2 77l32 30h15q52 -2 52 -126q0 -28 -3 -62l8 -25q13 0 158 137q80 66 144 66h4h8q124 -4 122 -74l-1 -31q-48 -122 -81 -131l-8 1l-91 61h-15q-9 2 -18 2q-101 0 -168 -246q-51 -401 -97 -400l-64 2q-40 1 -42 155z" />
<glyph unicode="s" horiz-adv-x="903" d="M42 574q-2 91 250 229h8l50 -7l73 35q26 -22 240 -35q199 -53 200 -85v-17q-7 -25 -48 -26h-17l-265 42l-107 -2q-205 -31 -203 -105l-7 -41q2 -80 482 -177l59 -56l1 -25q5 -184 -444 -341l-66 -1q-116 2 -117 62l32 26l91 2q59 2 252 122q24 1 81 68l-1 33 q-1 38 -125 46q-17 19 -250 93q-159 86 -167 111z" />
<glyph unicode="t" horiz-adv-x="725" d="M40 733q0 75 108 89l71 -18q104 0 144 269q48 99 143 99l18 -108l-81 -170v-45q11 -56 121 -56q57 0 141 15l10 -45q-35 -107 -223 -107q-27 0 -58 2q-71 -18 -71 -122l-45 -171v-152q18 -99 89 -99h72l170 54q36 -13 36 -27q-13 0 -53 -80q-88 -72 -126 -72h-116 q-167 0 -189 224l-9 54l27 341q0 49 -152 72q-27 33 -27 53z" />
<glyph unicode="u" horiz-adv-x="807" d="M40 289q0 168 109 468l92 25l8 -8q0 -165 -67 -234l-25 -234q0 -134 117 -134q129 0 268 284q96 360 167 360l41 8l17 -50q-14 -226 -50 -226q-25 -132 -50 -167l8 -50q-28 0 -58 -326v-50l-17 -17h-25q-40 0 -67 175l-8 9h-25q-156 -75 -201 -75l-42 -9q-192 0 -192 251 z" />
<glyph unicode="v" horiz-adv-x="744" d="M40 725q0 43 103 60q39 0 52 -103l-18 -51v-26q44 -335 112 -335h26q36 11 197 335q129 232 258 232l17 -34q-102 -203 -146 -258q-28 -109 -180 -343q-106 -165 -198 -215q-111 41 -111 137q-43 109 -112 601z" />
<glyph unicode="w" horiz-adv-x="1185" d="M40 772l27 28l23 -2q31 -24 85 -236q58 -222 76 -244l14 -17l31 -3q63 41 267 450q60 83 106 83h5q55 -6 55 -67q0 -8 -1 -17l-12 -117l12 -111l-31 -146l-2 -15q-2 -21 -2 -39q0 -79 41 -114l15 -2h3q61 0 161 218q193 349 234 353l15 -2l21 -26l-142 -307 q-6 -59 -50 -96q-45 -62 -62 -143q-22 -5 -63 -80q-96 -117 -149 -117h-4q-91 10 -123 397q-28 43 -43 44h-3q-37 0 -69 -87q-49 -44 -136 -252q-61 -68 -97 -68h-4q-76 72 -166 590q-20 2 -32 145z" />
<glyph unicode="x" horiz-adv-x="750" d="M40 851l33 25h33q67 0 140 -149q37 -7 116 -132l8 -8h8q18 0 223 256h33q17 0 17 -25q0 -54 -141 -272q-41 -62 -41 -107q0 -97 198 -264q66 0 66 -17q-46 -82 -99 -82q-26 0 -214 206h-25q-55 0 -182 -231q-79 -99 -123 -99l-42 42v7q0 36 99 149q141 220 141 264 q0 80 -124 206q-124 168 -124 231z" />
<glyph unicode="y" horiz-adv-x="806" d="M-231 -191l1 9q25 39 66 39q5 0 10 -1l35 -4l71 -96q-8 17 -8 21q0 1 1 1q4 0 35 -46l18 -2l53 4l69 -34q5 -1 11 -1l173 135q47 74 47 115q0 51 -116 177q-156 407 -208 647l20 16l26 -3q30 -34 86 -44l33 -112l-18 -87q15 -6 79 -68q-2 -22 -2 -43q0 -132 94 -191h3 q46 0 132 174l249 342l45 4l23 -46q-80 -165 -169 -422q-53 -79 -61 -164l4 -45l-49 -40l-9 -88q-31 -29 -79 -154q-121 -155 -141 -155q-63 -67 -127 -67q-7 0 -14 1l-81 -11l-10 1q-21 30 -155 52l-54 35q-83 88 -83 144v7z" />
<glyph unicode="z" horiz-adv-x="862" d="M40 57v41q0 15 202 193l242 340v48q-20 41 -64 41l-248 -7l-33 25v16q0 60 467 63h16q54 0 80 -41v-24q-96 -113 -169 -234q-87 -92 -162 -235q-81 -66 -81 -121q7 -48 65 -48h24l65 8l48 2l267 22q121 -6 121 -16q-13 -43 -81 -89l-48 8l-89 -40l-65 -2l-80 2l-122 8 l-48 -6l-65 6l-80 -6q-17 3 -130 14z" />
<glyph unicode="{" horiz-adv-x="726" d="M40 614v18q21 34 162 108q33 45 44 125q-44 110 -44 261q15 126 125 233q181 90 242 90l9 -9v-27q0 -25 -197 -171l-45 -81l36 -134l-18 -45l45 -72q0 -121 -81 -224v-99q0 -21 81 -36l18 -54v-98q0 -35 -45 -126l-9 -45q12 -259 99 -259l206 -9l18 -18q0 -65 -126 -117 l-27 27h-98q-180 83 -180 331l27 126q0 185 -125 233q-117 45 -117 72z" />
<glyph unicode="|" horiz-adv-x="255" d="M40 -92l25 583v234l-8 116l8 34l-17 183q0 158 59 158l50 17l16 -50l-8 -75l33 -50v-167l-8 -91l25 -67l-25 -67l25 -66q-17 -209 -33 -209l8 -41q-25 -43 -25 -84v-83l8 -100q-11 -291 -58 -291h-17q-58 33 -58 116z" />
<glyph unicode="}" horiz-adv-x="704" d="M0 1332q0 65 126 117l27 -27h98q180 -84 180 -332l-27 -126q0 -184 125 -233q117 -45 117 -72v-18q-21 -34 -161 -108q-34 -45 -45 -125q45 -110 45 -260q-16 -126 -126 -233q-181 -90 -242 -90l-9 9v27q0 25 197 170l45 81l-36 134l18 45l-45 72q0 121 81 224v99 q0 21 -81 36l-18 54v98q0 35 45 126l9 45q-12 260 -99 260l-206 9z" />
<glyph unicode="~" horiz-adv-x="1150" d="M40 507q0 81 246 190l152 38h75q25 -38 123 -38q0 -54 152 -67h19q89 0 237 123h18q48 -6 48 -28v-28q0 -140 -284 -190h-10q-146 0 -388 86h-9q-69 -46 -199 -86l-104 -75h-38q-25 0 -38 75z" />
<glyph unicode="&#xa1;" />
<glyph unicode="&#xa2;" />
<glyph unicode="&#xa3;" horiz-adv-x="968" d="M-18 144q255 229 262 295l2 26q7 70 -139 84q-44 4 -49 31l2 17q6 24 127 57l20 33l7 164q27 115 180 243q176 44 221 40l164 -103l60 -92q-57 -82 -94 -79q-90 122 -185 149l-26 2q-67 7 -167 -105q-9 -97 -53 -108l-3 -25q13 -132 91 -140l60 -6l96 8l24 -19l69 -7h95 q60 -18 59 -32q-69 -97 -122 -92l-188 35q-147 14 -161 -140q-15 1 -26 -85l-1 -8q-3 -33 219 -83q110 -66 164 -72l220 30l16 -18l-1 -8q-104 -113 -152 -133l-17 1l-168 60q-120 68 -207 76q-115 11 -169 -36l-50 14q-60 -17 -110 -59l-17 2q-57 48 -53 83z" />
<glyph unicode="&#xa4;" />
<glyph unicode="&#xa5;" />
<glyph unicode="&#xa6;" />
<glyph unicode="&#xa7;" horiz-adv-x="1991" d="M-12 1177v6l6 6v8l-6 6l11 12v26h-5v-32h-6v32q0 20 33 20v6l5 -6h5l17 6l49 -6h17v-14h5l-5 -6v-44q17 0 17 -45q14 -32 71 -32v-6q77 0 77 101v26l5 6l-5 6v8l5 6v6h-5l5 6v203q33 0 33 20h5v-20h77l12 -12v-95l5 -6l-5 -7v-141l5 -6v-6l-11 -12v-26q-12 -165 -93 -165 l-50 -14v8l-5 -8h-44l-6 8l-16 -8q-151 0 -187 84l-10 44h5l-5 6v39l5 6v6h-11zM-4 571l4 6v64l-4 6v8l4 6h6l-10 26h4l-4 6v12l4 6l-4 20l4 6l-4 38q0 82 65 109l38 24l6 -6q28 14 98 14h100v12h5q0 -21 83 -32q88 -44 88 -134l-6 -6v-7l6 -56h-6l6 -6v-84q0 -121 -72 -153 q-65 -26 -131 -26h-55q-221 0 -221 147h-4zM4 1247l5 -18h7v18h-12zM7 78v17l11 19v6h-11v5l11 19v55l-11 18h11v30l-5 -6h-6v12h11v85l5 6v7l62 -7l48 7v-30q0 -158 16 -158h46l33 6l26 -6h10l5 6l58 -13v182l6 6v7l26 -7h37l5 7l5 -7h5l6 7h5l15 -7l6 -61l-6 -42l11 -17 l-5 -7v-48l10 -25l-5 -24l5 -6l-5 -31v-36l5 -19l-5 -29v-103l-11 -12h-5l-15 6l-26 -6h-53l-11 175h-10v-60h-5q0 66 -21 66v-6l-5 6h-22l-5 -6l-5 6h-11v-12h-5v12l-26 -6v6l-5 -6l-38 6h-31l-5 -31v-30l10 -17l-5 -6l5 -30v-61h-36l-32 6l-21 -6v6l-5 -6h-5l-21 6v42 l-5 7l5 6v30q-1 30 -10 30l5 6v61h-11zM138 731q0 -179 33 -179q21 -13 60 -13h22q83 0 83 64l-12 122l7 24q-16 45 -95 45h-38v-13l-5 7h-7q-35 0 -48 -57zM448 344h10v-103h-5zM449 1171l5 6l-5 44v40l5 6l-5 6v171l5 32h83v20h5q0 -20 33 -20v-241q6 -115 39 -115h5l6 6 l5 -6h67l5 -6l5 6l28 -6q120 0 120 51l7 293v24h43l22 8q33 -9 33 -20l-5 -20q10 0 10 32h12v-18l-5 -6v-8h5l-5 -6v-12h10q-10 -32 -22 -32v-13l17 7h5v-7h-10v-6l10 -12l-10 -32l5 -6l-5 -6h10l-5 -32l11 -14v-12l-6 -6v-8l6 -6h-6l6 -6v-20l-6 -6l6 -6v-38h-6v12h-5 l-12 -63l17 -6v-12h-10l5 -8v-12l-22 12v-6l5 -24q0 -38 -98 -64h-61l-22 -8l-22 8h-28l-5 -8l-5 8h-50l-22 6l-22 -6h-23l-5 6l-5 -6q-85 15 -121 64zM494 902h12v-70h-5zM496 41l6 6v73l-6 5l6 8v133l5 91h5l84 6l5 -6h5l6 6h5l26 -6l5 6v-6l5 6l53 -6h95l5 -6l5 6l78 -6 h17l5 6h5q5 -66 26 -66q0 -14 -16 -14l-5 -5v-12h21v-7h-21l-37 7l-78 -13l-48 13l-5 -19l-16 12h-26l-20 -6l-17 6v-6l-5 6h-5l-32 -12l-5 6l-5 -17l5 -25h-5l5 -19l16 8l53 -8h110l5 -6h5l6 6v-6l5 6h5l31 -6l5 6h5l16 -6v6l27 -6v-91l-184 -6l-41 6l-48 -6h-16v-24 l-5 -25q0 -16 31 -23l5 6l26 -6h27l26 6l32 -6h5l27 6v-6l5 6h105l5 -6l5 6h11l5 -30h-5l5 -6v-19l-5 -5l5 -6q0 -44 -26 -44v8l-5 -8h-7l-246 -6l-15 -17q-6 17 -32 17h-42q-37 0 -57 14l5 5q-5 121 -16 121zM501 667v26h5v-26h-5zM501 756v44h5v-44h-5zM522 629l12 38 l-6 6l6 32v38l-6 26l6 25l-6 6l16 116l39 -8h21l55 8v-116l6 -57l-6 -18l6 -8h55l6 8h5l11 -14l5 6v8l45 -14l5 6h5l7 -6l5 6h5l28 -6v14h5v-14h5l5 64l-5 6l5 45v82h105q12 0 12 -50h5l-5 -6v-52l5 -25l-5 -6v-7q0 -51 16 -51v-18l-6 -6v-8l17 -24l-6 -8l6 -32 q0 -76 -22 -76l5 -19l-5 -96h-115v8q0 95 -12 95l5 6v76h-10v-63h-5q0 69 -23 69v-6l-5 6h-5l-17 -6l-5 6v-6l-6 6h-5l-17 -12v12h-5l-5 -6h-7l-5 6h-5l-6 -6l-39 6h-21l-12 -12l12 -171l-6 -8l-6 8h-103l-17 18v89l-5 7v6l5 7h-5l5 6v6q0 58 -17 58zM969 400v6l6 18h5v-18 l-5 -6h-6zM976 53l5 24l-5 25v6l5 5l-5 6v13l5 6l-5 6v6l5 5v8h-5l5 5v139l5 44h90l5 6l5 -6h16l31 6l5 -6l36 6q247 0 247 -37q32 -26 32 -55h5l15 12l7 -17v-13h-7v18l-10 -11v-25h5v12h5l7 -25l-12 -30l5 -6q-5 -97 -15 -97l5 -6v-24h-10v11h-6q0 -33 -46 -53v-8l79 -119 v-8l-22 8q-31 -5 -31 -13l-6 5h-5l-58 -5l-5 5h-5l-5 -5q-64 127 -111 127l-26 -6h-32l-21 6l-31 -12l-5 6l-5 -6l-5 6l-5 -61l5 -5v-6q-8 -31 -16 -31h-84q-28 0 -31 18h5l-5 7v139zM1017 464l17 63l-7 19q11 0 23 57l-6 32l11 26h-5l22 120h-5q21 54 27 127l66 14 q22 0 22 -14l5 8h6l17 -8l65 14l17 -6l5 6h6l5 -6h6l21 6q40 -20 40 -58l10 -12l-5 -8v-6l27 -95l-5 -18l11 -26l-6 -20l16 -44h7q15 0 15 26q10 0 23 -78h-23v14q-10 0 -10 -20l27 -133q-18 -26 -32 -26l-7 6l-60 -12l-16 12l-5 -6h-7q-48 12 -48 58l-39 12l-6 -6l-27 6 h-22q-16 0 -23 -56l-48 -20l-45 12l-5 -6h-10l-7 6l-5 -6h-11q-14 0 -22 46zM1027 1024v8h11v6l-11 12l6 6v38l-6 8l6 6v336q0 52 32 52h67l21 -6l22 6q28 0 143 -249q60 -114 60 -133h7l5 31v20l5 128h-5l5 18l-5 26l5 6l-5 26l11 113h55q32 0 32 -38v-183l-5 -58l5 -20 l-5 -6l5 -32q0 -145 -15 -145h-150l-115 229l-65 140v6l-11 -13v-89l-6 -26l6 -18h-6l6 -8l-6 -18l6 -133v-20q0 -12 16 -12l-5 -6v-8l22 -6v-6q-28 0 -28 -12h-66l-38 6v6l5 6v6h-11zM1107 144l10 -12h89l6 -7h5l5 7l5 -7l11 13v-6l5 6l26 -6h15l12 12l5 -6h21l5 42h-10v6 l5 19h-11l6 5v6h-6v-6l-42 13h-5l-6 -7l-5 7h-10l-5 -7l-52 13l-22 -13l-21 13q-21 -3 -21 -19h-5l-5 6h-5v-6l5 -5l-5 -6h10l-10 -36v-19zM1143 1102h10l7 -8h5v8l5 -8h11l17 14q0 -20 17 -20l15 6l6 -6v-6q0 -18 -38 -18l5 -8v-6h-16l5 6v20l-22 6q0 -18 -10 -18 q-17 6 -17 38zM1210 655l15 -14h28l17 20q-13 82 -38 82q-22 -34 -22 -88zM1247 1088l6 20h17v-6l-12 -14h-11zM1434 408h5l-5 6v14q33 -10 33 -40h-11l-5 8h-5l-7 -8zM1445 667v26h6v-26h-6zM1487 503v6h17v102l5 6l-5 8v145l5 64h-5l5 6v70q0 15 50 20l104 -6 q103 -170 186 -371h12l5 78l-5 6l5 32v89l-5 6l5 6v84l6 64q87 0 87 -26v-52h6v64h6v-70l-6 -6v-6l6 -26l-12 -12l6 -39l-6 -6h6l-6 -7v-203l6 -7l-6 -6v-51l-5 -31h-160q0 16 -43 95h-5l5 6v6q-21 6 -110 211l-5 6l-28 50l-5 -44v-229l5 -6l-5 -7v-31q19 -39 33 -39v-12 l-5 6h-12q-11 0 -11 -18l-5 6h-6l-16 -6l-5 6v-6l-7 6h-65v6l5 19h-11v6h11v7l-5 6l5 6v19h-22zM1500 95v7l6 6h5l-11 66l6 6l-6 25q0 105 100 139v7l5 -7l37 7h36l5 6l5 -6l38 6h26l21 -6l32 11l-5 -5v-6l25 -7l6 7h5l89 -44q37 -33 37 -163v-42l5 -7l-5 -6h5l-5 -6v-36 l5 -6q-10 -78 -52 -121q-79 -36 -158 -36h-10q-241 0 -241 144v61zM1516 1108l12 37h-6l11 44l-11 40l11 44l-11 70h6l-6 6l6 45l-6 38l6 18h-6q12 40 21 40l6 -8l11 14l23 -14l15 8l6 -8v-6l22 14l5 -8v-6l28 6h17q10 0 17 -56l-12 -14l5 -37h-10l10 -70q76 127 83 165 l77 12l5 -6l28 6h39q33 -3 33 -18l-17 -32l5 -6q-43 -48 -60 -95l-50 -70l89 -147q0 -20 16 -20l-5 -6v-12l32 -64q-8 -26 -15 -26l-28 6l-12 -12l-10 12l-17 -6l-5 6h-6l-5 -6h-7l-5 6h-5l-33 -12q-34 20 -120 172h-7l-10 -70l17 -50l-12 -40h-5l-50 -6l-5 6h-6l-5 -6h-6 q-76 9 -76 32l-6 52l6 6v6zM1614 535h5l17 -6v6l22 -13l5 19h11l-5 -6v-6l27 -13v13h11v-20q0 -12 -33 -12v-13h-16l5 7v18l-5 -6h-6l-11 13v-19h-17l-5 19l5 6zM1642 47q0 -38 68 -55q110 0 110 42l5 7h-5l11 30l-11 24l5 18l-5 19h5l-10 36l5 6v25q-19 36 -63 36h-57 l-5 -6l-7 6h-5q-41 -16 -41 -55v-122l5 -5v-6h-5zM1724 522v7l10 12h5v-19h-15z" />
<glyph unicode="&#xa8;" />
<glyph unicode="&#xa9;" />
<glyph unicode="&#xaa;" />
<glyph unicode="&#xab;" />
<glyph unicode="&#xac;" />
<glyph unicode="&#xad;" horiz-adv-x="616" d="M40 538l1 17q3 43 209 53l152 -11l78 12l50 -21l62 16l39 -60l-41 -77l-138 -10l-151 28l-111 1l-8 8l-9 1l-34 -6l-59 4z" />
<glyph unicode="&#xae;" />
<glyph unicode="&#xaf;" />
<glyph unicode="&#xb0;" />
<glyph unicode="&#xb1;" />
<glyph unicode="&#xb2;" />
<glyph unicode="&#xb3;" />
<glyph unicode="&#xb4;" horiz-adv-x="516" d="M92 838q-52 37 188 348q66 19 87 4l10 -7q28 -44 31 -139l-66 -43q-79 -105 -186 -175l-6 -4l-38 2z" />
<glyph unicode="&#xb5;" />
<glyph unicode="&#xb6;" horiz-adv-x="1990" />
<glyph unicode="&#xb7;" />
<glyph unicode="&#xb8;" />
<glyph unicode="&#xb9;" />
<glyph unicode="&#xba;" />
<glyph unicode="&#xbb;" />
<glyph unicode="&#xbc;" />
<glyph unicode="&#xbd;" horiz-adv-x="1146" d="M-5 13q2 23 191 223q246 300 371 523q30 24 92 157q130 194 161 211l66 10l13 -17q-2 -29 -183 -325q-25 -22 -67 -119l-211 -313q-305 -394 -399 -385l-14 1q-12 1 -20 34zM125 715l3 41l45 221l7 108q15 114 110 105l10 -50l-13 -83l19 -51l-27 -64l2 -67l-21 -98 l-4 -57q-76 -101 -94 -99q-22 2 -37 94zM569 93q5 68 276 183q128 62 132 120l1 9q5 72 -88 91l-22 2q-76 7 -132 -104l-46 -39l-29 3l-34 46l3 41q55 170 310 146l15 -1q23 -2 82 -58q44 -4 42 -37l-7 -8l-1 -8q12 -33 8 -92q-8 -110 -197 -198l-9 -33q7 -42 48 -46h197 l6 -10l-2 -24q-46 -79 -100 -75l-145 14l-158 31l-102 2q-44 20 -48 45z" />
<glyph unicode="&#xbe;" />
<glyph unicode="&#xbf;" />
<glyph unicode="&#xc0;" />
<glyph unicode="&#xc1;" />
<glyph unicode="&#xc2;" />
<glyph unicode="&#xc3;" />
<glyph unicode="&#xc4;" horiz-adv-x="986" d="M40 79q89 201 169 471q53 48 177 453q47 133 134 133q79 -117 79 -169l-8 -62q120 -305 186 -346q17 -50 98 -89l35 9l9 -9v-27q-35 -37 -35 -88v-62l62 -178v-53q0 -52 -89 -124h-9q-40 0 -80 239q-29 178 -133 178h-9l-293 -18h-9q-56 -28 -89 -133q-27 -90 -168 -196 q-18 0 -27 71zM262 1367q0 124 115 124q45 -14 45 -53q-73 -142 -133 -142zM369 621l8 -133v-18q9 -27 54 -27h71q133 6 133 63q0 111 -133 319h-27q-52 0 -106 -204zM635 1314v9q0 82 133 124q20 -24 27 -89q-41 -80 -98 -124h-18q-26 0 -44 80z" />
<glyph unicode="&#xc5;" horiz-adv-x="930" d="M40 11v50q59 157 59 278v33l93 177q67 280 134 480l-50 143v34q31 219 210 219h42q149 -65 152 -101q0 -130 -160 -261l-9 -34v-84q51 -22 51 -177q105 -269 185 -269q84 0 84 -17v-9l-33 -50v-93q58 -123 84 -235l8 -9v-8q0 -42 -76 -109h-25q-48 0 -92 176v76 q-65 168 -118 168h-26l-202 -8l-8 8h-8q-93 0 -110 -151q-28 0 -42 -135q-73 -106 -101 -117h-17zM293 532q0 -59 67 -59q202 0 202 76v9q-93 244 -126 244h-26q-61 0 -117 -236v-34zM419 1223q8 -26 50 -26q45 0 59 34v25q0 42 -42 59q-67 0 -67 -76v-16z" />
<glyph unicode="&#xc6;" />
<glyph unicode="&#xc7;" />
<glyph unicode="&#xc8;" />
<glyph unicode="&#xc9;" />
<glyph unicode="&#xca;" />
<glyph unicode="&#xcb;" />
<glyph unicode="&#xcc;" />
<glyph unicode="&#xcd;" />
<glyph unicode="&#xce;" />
<glyph unicode="&#xcf;" />
<glyph unicode="&#xd0;" />
<glyph unicode="&#xd1;" />
<glyph unicode="&#xd2;" />
<glyph unicode="&#xd3;" />
<glyph unicode="&#xd4;" />
<glyph unicode="&#xd5;" />
<glyph unicode="&#xd6;" horiz-adv-x="1251" d="M43 717q16 256 355 419l218 23q337 -21 475 -199l-6 -102q62 -140 90 -345l26 -30l-1 -19l-80 -229q-79 -121 -259 -228l-47 13q-63 -23 -161 -26l-110 25l-39 -7l-243 156q-221 215 -204 483q-16 1 -14 66zM164 710q-7 -117 91 -194q28 -161 74 -164q82 -116 160 -142 q15 -57 33 -59l66 -4l83 -23q283 34 292 159q75 141 83 277q12 186 -226 427l-45 22l-159 10l-56 -6l-47 13q-28 2 -193 -82q-145 -75 -154 -215zM344 1374q0 72 38 84h28q37 -15 37 -65v-19q0 -72 -37 -84h-28q-38 12 -38 84zM803 1364v47q0 51 47 75h10q42 0 93 -159 q-26 -64 -65 -84h-19q-66 40 -66 121z" />
<glyph unicode="&#xd7;" />
<glyph unicode="&#xd8;" />
<glyph unicode="&#xd9;" />
<glyph unicode="&#xda;" />
<glyph unicode="&#xdb;" />
<glyph unicode="&#xdc;" />
<glyph unicode="&#xdd;" />
<glyph unicode="&#xde;" />
<glyph unicode="&#xdf;" />
<glyph unicode="&#xe0;" />
<glyph unicode="&#xe1;" />
<glyph unicode="&#xe2;" />
<glyph unicode="&#xe3;" />
<glyph unicode="&#xe4;" horiz-adv-x="915" d="M40 167q0 215 613 357q85 9 85 77q-40 136 -119 136h-85q-194 -38 -358 -170h-17q-13 0 -25 34q0 85 391 222q94 55 94 136q41 111 145 111l17 -26v-17l-9 -9l9 -8v-9l-43 -136q0 -23 103 -136v-9l-17 -25v-9l51 -59v-120q-38 -66 -86 -400q-34 -110 -59 -110h-26 q-14 0 -68 102l-42 8q-37 0 -154 -60l-42 9q-36 0 -94 -43h-8q-230 31 -230 94q-17 2 -26 60zM185 150q31 -26 59 -26h17q243 28 401 111l59 59v94q-29 51 -93 51q-92 0 -341 -136q-102 -53 -102 -153zM313 908v34q0 87 136 128l25 -26v-9q-61 -161 -136 -161z" />
<glyph unicode="&#xe5;" horiz-adv-x="964" d="M40 164v68q0 88 493 238q213 13 213 68v26q-29 144 -204 144h-9q-195 0 -399 -93l-26 25v34q39 87 391 128q201 0 247 -60q110 -108 110 -229v-102q0 -37 68 -102v-17q0 -29 -85 -128q-97 -203 -161 -203q-34 135 -102 135h-34q-68 -4 -102 -34q-391 0 -391 94zM193 207 q14 -43 60 -43q351 0 442 111l8 34v8q0 68 -68 77q-35 0 -68 -26l-42 9h-9l-153 -60q-170 -44 -170 -110zM261 1051q25 161 77 161q91 68 221 68l93 -127v-34q0 -107 -187 -230l-51 -8q-153 50 -153 170zM406 1068q17 -46 42 -51q51 17 51 68v34l-34 25q-34 0 -59 -76z" />
<glyph unicode="&#xe6;" />
<glyph unicode="&#xe7;" />
<glyph unicode="&#xe8;" />
<glyph unicode="&#xe9;" />
<glyph unicode="&#xea;" />
<glyph unicode="&#xeb;" />
<glyph unicode="&#xec;" />
<glyph unicode="&#xed;" />
<glyph unicode="&#xee;" />
<glyph unicode="&#xef;" />
<glyph unicode="&#xf0;" />
<glyph unicode="&#xf1;" />
<glyph unicode="&#xf2;" />
<glyph unicode="&#xf3;" />
<glyph unicode="&#xf4;" />
<glyph unicode="&#xf5;" />
<glyph unicode="&#xf6;" horiz-adv-x="1017" d="M40 303q0 180 137 313q182 195 254 195h19l254 10l78 -20h59l117 -88v-10l-10 -39l29 -68q0 -300 -283 -469l-224 -126h-20l-39 29q-45 0 -88 -29h-10l-185 97q-58 80 -88 205zM138 987q63 332 205 332h48l20 -20q0 -36 -205 -332l-49 -10zM225 342q12 -72 127 -166 q308 0 469 293l10 59q0 156 -186 156h-9q-296 0 -411 -264v-78zM548 1026q132 293 175 293h79l19 -20v-20q-45 -42 -59 -136q-118 -156 -175 -156h-10q-15 0 -29 39z" />
<glyph unicode="&#xf7;" />
<glyph unicode="&#xf8;" />
<glyph unicode="&#xf9;" />
<glyph unicode="&#xfa;" />
<glyph unicode="&#xfb;" />
<glyph unicode="&#xfc;" />
<glyph unicode="&#xfd;" />
<glyph unicode="&#xfe;" />
<glyph unicode="&#xff;" />
<glyph unicode="&#x152;" />
<glyph unicode="&#x153;" />
<glyph unicode="&#x178;" />
<glyph unicode="&#x2c6;" />
<glyph unicode="&#x2dc;" />
<glyph unicode="&#x2000;" horiz-adv-x="751" />
<glyph unicode="&#x2001;" horiz-adv-x="1502" />
<glyph unicode="&#x2002;" horiz-adv-x="751" />
<glyph unicode="&#x2003;" horiz-adv-x="1502" />
<glyph unicode="&#x2004;" horiz-adv-x="500" />
<glyph unicode="&#x2005;" horiz-adv-x="375" />
<glyph unicode="&#x2006;" horiz-adv-x="250" />
<glyph unicode="&#x2007;" horiz-adv-x="250" />
<glyph unicode="&#x2008;" horiz-adv-x="187" />
<glyph unicode="&#x2009;" horiz-adv-x="300" />
<glyph unicode="&#x200a;" horiz-adv-x="83" />
<glyph unicode="&#x2010;" horiz-adv-x="616" d="M40 538l1 17q3 43 209 53l152 -11l78 12l50 -21l62 16l39 -60l-41 -77l-138 -10l-151 28l-111 1l-8 8l-9 1l-34 -6l-59 4z" />
<glyph unicode="&#x2011;" horiz-adv-x="616" d="M40 538l1 17q3 43 209 53l152 -11l78 12l50 -21l62 16l39 -60l-41 -77l-138 -10l-151 28l-111 1l-8 8l-9 1l-34 -6l-59 4z" />
<glyph unicode="&#x2012;" horiz-adv-x="616" d="M40 538l1 17q3 43 209 53l152 -11l78 12l50 -21l62 16l39 -60l-41 -77l-138 -10l-151 28l-111 1l-8 8l-9 1l-34 -6l-59 4z" />
<glyph unicode="&#x2013;" />
<glyph unicode="&#x2014;" />
<glyph unicode="&#x2018;" />
<glyph unicode="&#x2019;" />
<glyph unicode="&#x201a;" />
<glyph unicode="&#x201c;" />
<glyph unicode="&#x201d;" />
<glyph unicode="&#x201e;" />
<glyph unicode="&#x2022;" />
<glyph unicode="&#x2026;" />
<glyph unicode="&#x202f;" horiz-adv-x="300" />
<glyph unicode="&#x2039;" />
<glyph unicode="&#x203a;" />
<glyph unicode="&#x205f;" horiz-adv-x="375" />
<glyph unicode="&#x20ac;" horiz-adv-x="1017" d="M-26 561l1 9q4 34 166 23q39 31 44 80q5 36 -116 109l2 17q9 30 135 44q18 2 174 229q54 33 223 68l24 -11q39 12 138 0l136 -56l61 -29l14 -27q-41 -130 -105 -12l-9 1l-23 20l-102 12q-249 4 -255 -47q-51 6 -78 -145q9 -88 75 -96l85 -1l49 -23l102 -13q32 -22 29 -46 q-23 -49 -108 -39l-145 18l-69 -9q-6 26 -48 31q-43 5 -49 -46l-3 -26q92 -45 351 -93l37 -48l-1 -8l-38 -30l-246 30l-76 -51q-13 -114 96 -210q107 -108 226 -122q75 -9 267 86l67 -32l-2 -16q-37 -70 -144 -129l-28 -13l-8 1l-34 12l-80 -25l-200 58q-224 149 -309 364 q12 97 -148 130q-81 40 -78 61z" />
<glyph unicode="&#x2122;" />
<glyph unicode="&#x25fc;" horiz-adv-x="875" d="M0 0v875h875v-875h-875z" />
</font>
</defs>
</svg>
