<?xml version="1.0" standalone="no"?>
<!DOCTYPE svg PUBLIC "-//W3C//DTD SVG 20010904//EN"
 "http://www.w3.org/TR/2001/REC-SVG-20010904/DTD/svg10.dtd">
<svg version="1.0" xmlns="http://www.w3.org/2000/svg"
 width="260.000000pt" height="260.000000pt" viewBox="0 0 260.000000 260.000000"
 preserveAspectRatio="xMidYMid meet">
<metadata>
Created by potrace 1.11, written by Peter Selinger 2001-2013
</metadata>
<g transform="translate(0.000000,260.000000) scale(0.100000,-0.100000)"
fill="#000000" stroke="none">
<path d="M1621 2583 c-33 -16 -84 -73 -115 -128 -9 -16 -27 -70 -39 -120 -19
-77 -25 -90 -44 -93 -12 -2 -28 -14 -37 -26 -8 -13 -28 -26 -45 -29 -32 -7
-64 -36 -87 -80 -17 -32 -28 -123 -16 -131 4 -2 47 18 95 46 103 60 280 117
348 112 50 -3 87 -10 124 -24 40 -15 42 -13 50 38 27 167 0 315 -71 385 -56
56 -113 74 -163 50z"/>
<path d="M1616 2065 c-25 -7 -46 -10 -46 -9 0 8 -121 -42 -185 -77 -38 -21
-90 -49 -115 -62 -65 -34 -78 -54 -224 -347 -125 -250 -155 -313 -221 -465
-88 -202 -227 -477 -255 -505 -14 -14 -36 -38 -48 -54 l-23 -30 28 -11 c21 -9
32 -25 46 -66 26 -75 106 -190 148 -212 205 -105 398 -179 546 -210 139 -30
405 -7 442 37 7 8 20 12 31 9 31 -8 49 48 54 167 2 36 8 76 14 87 45 84 181
426 200 503 18 76 41 192 47 250 4 30 9 58 11 62 8 12 18 215 18 348 -1 120
-9 218 -19 229 -2 2 -15 -9 -28 -25 l-24 -28 19 -44 c11 -24 18 -46 15 -48 -6
-7 -67 8 -67 16 0 5 -18 6 -40 3 -45 -6 -50 2 -20 40 26 32 25 39 -4 86 -21
33 -23 41 -12 57 17 22 41 13 64 -25 l17 -29 28 24 c27 23 28 26 15 61 -16 46
-152 186 -228 236 -63 41 -114 50 -184 32z m-126 -224 c13 -25 25 -48 27 -50
4 -6 55 30 93 66 39 38 69 39 81 5 8 -20 2 -30 -34 -66 -24 -23 -56 -51 -72
-63 -24 -17 -27 -23 -17 -36 7 -8 13 -32 15 -53 2 -37 1 -39 -28 -39 -23 0
-33 7 -49 38 -19 37 -20 37 -40 19 -38 -34 -94 -62 -110 -56 -31 12 -16 43 43
88 l60 46 -24 43 c-35 65 -39 86 -20 107 23 25 44 11 75 -49z m423 -302 c165
-21 192 -57 104 -138 -23 -21 -61 -56 -84 -77 l-42 -39 -7 -100 c-3 -55 -11
-106 -16 -112 -21 -26 -52 -13 -108 45 l-56 58 0 -76 c1 -115 -38 -170 -125
-175 -77 -4 -126 35 -133 104 -3 35 1 49 29 89 19 26 50 71 70 101 20 30 43
61 51 68 12 12 12 18 -1 44 -31 60 35 185 115 218 26 11 37 10 203 -10z m-918
-1013 c113 -16 311 -125 361 -200 32 -47 50 -46 65 4 7 22 16 37 20 33 4 -4
26 -46 50 -93 60 -121 68 -123 98 -24 l19 59 46 -97 c25 -54 46 -100 46 -102
0 -5 -79 -32 -121 -42 -13 -3 -69 -7 -124 -9 -81 -2 -115 2 -180 21 -144 42
-234 72 -303 103 -37 16 -92 40 -122 54 -30 13 -83 47 -117 75 -59 49 -92 104
-105 177 -5 31 61 61 140 64 36 1 68 3 69 5 2 1 31 -3 65 -11 35 -7 77 -15 93
-17z"/>
<path d="M1940 1469 c-19 -4 -62 -15 -95 -24 -33 -9 -69 -18 -79 -20 -10 -2
-34 -9 -52 -15 -29 -10 -32 -14 -25 -38 14 -47 121 -262 131 -262 6 0 8 45 6
109 -5 127 -11 117 123 205 88 57 86 65 -9 45z"/>
<path d="M1013 320 c-33 -13 -19 -37 37 -65 70 -35 127 -43 145 -19 17 24 5
48 -35 69 -36 19 -118 27 -147 15z"/>
</g>
</svg>
